<svg width="1200" height="800" viewBox="0 0 1200 800" xmlns="http://www.w3.org/2000/svg">
  <rect width="1200" height="800" rx="32" fill="#0f172a"/>
  <rect x="80" y="80" width="1040" height="640" rx="24" fill="#111827"/>
  <rect x="120" y="140" width="260" height="140" rx="18" fill="#2563eb"/>
  <rect x="420" y="140" width="260" height="140" rx="18" fill="#1d4ed8"/>
  <rect x="720" y="140" width="340" height="140" rx="18" fill="#3b82f6"/>
  <rect x="120" y="330" width="620" height="300" rx="24" fill="#1f2937"/>
  <rect x="780" y="330" width="280" height="300" rx="24" fill="#374151"/>
  <path d="M180 560 L280 480 L360 520 L520 400 L620 450" stroke="#38bdf8" stroke-width="12" fill="none" stroke-linecap="round" stroke-linejoin="round"/>
  <circle cx="180" cy="560" r="12" fill="#f8fafc"/>
  <circle cx="280" cy="480" r="12" fill="#f8fafc"/>
  <circle cx="360" cy="520" r="12" fill="#f8fafc"/>
  <circle cx="520" cy="400" r="12" fill="#f8fafc"/>
  <circle cx="620" cy="450" r="12" fill="#f8fafc"/>
  <rect x="840" y="390" width="140" height="18" rx="9" fill="#93c5fd"/>
  <rect x="820" y="430" width="180" height="18" rx="9" fill="#60a5fa"/>
  <rect x="800" y="470" width="200" height="18" rx="9" fill="#3b82f6"/>
  <rect x="780" y="520" width="220" height="18" rx="9" fill="#2563eb"/>
</svg>